<svg width="240" height="64" viewBox="0 0 360 96" fill="none" xmlns="http://www.w3.org/2000/svg" role="img" aria-label="Sentinel">
  <g transform="translate(8,8) scale(0.8)">
    <path d="M50 7 L85 21 V51 C85 71 69 85 50 93 C31 85 15 71 15 51 V21 Z" fill="#FFFFFF"/>
    <path d="M50 16 L77 27 V51 C77 66 65 77 50 84 C35 77 23 66 23 51 V27 Z" fill="#1b1b1d"/>
    <path d="M31 50 Q50 35 69 50 Q50 65 31 50 Z" fill="none" stroke="#FFFFFF" stroke-width="4" stroke-linejoin="round"/>
    <circle cx="50" cy="50" r="7.5" fill="#FFFFFF"/>
    <circle cx="50" cy="50" r="2.6" fill="#1b1b1d"/>
  </g>
  <text x="96" y="52" font-family="-apple-system,Segoe UI,Roboto,sans-serif" font-size="38" font-weight="600" fill="#FFFFFF">Sentinel</text>
  <text x="97" y="74" font-family="-apple-system,Segoe UI,Roboto,sans-serif" font-size="11" letter-spacing="3" fill="#aaaaaa">TRACING POLICY CONSOLE</text>
</svg>
